<mxfile host="app.diagrams.net" modified="2021-03-12T16:47:07.875Z" agent="5.0 (Windows NT 10.0; Win64; x64) AppleWebKit/537.36 (KHTML, like Gecko) Chrome/89.0.4349.0 Safari/537.36" etag="W_lRLBUxHE6uj6c3jpQo" version="14.1.1" type="github">
  <diagram id="obmalHlAoBQwvRogUrdl" name="Page-1">
    <mxGraphModel dx="716" dy="361" grid="1" gridSize="10" guides="1" tooltips="1" connect="1" arrows="1" fold="1" page="1" pageScale="1" pageWidth="827" pageHeight="1169" math="0" shadow="0">
      <root>
        <mxCell id="0" />
        <mxCell id="1" parent="0" />
        <mxCell id="tR6j3zLINmBn2Jut2dCj-3" value="" style="rounded=1;whiteSpace=wrap;html=1;" vertex="1" parent="1">
          <mxGeometry x="226" y="40" width="376" height="470" as="geometry" />
        </mxCell>
        <mxCell id="tR6j3zLINmBn2Jut2dCj-4" value="" style="rounded=1;whiteSpace=wrap;html=1;" vertex="1" parent="1">
          <mxGeometry x="259" y="70" width="310" height="110" as="geometry" />
        </mxCell>
        <mxCell id="tR6j3zLINmBn2Jut2dCj-5" value="" style="rounded=1;whiteSpace=wrap;html=1;" vertex="1" parent="1">
          <mxGeometry x="259" y="190" width="151" height="50" as="geometry" />
        </mxCell>
        <mxCell id="tR6j3zLINmBn2Jut2dCj-8" value="" style="endArrow=none;html=1;entryX=0.5;entryY=0;entryDx=0;entryDy=0;exitX=0.5;exitY=1;exitDx=0;exitDy=0;" edge="1" parent="1" source="tR6j3zLINmBn2Jut2dCj-5" target="tR6j3zLINmBn2Jut2dCj-5">
          <mxGeometry width="50" height="50" relative="1" as="geometry">
            <mxPoint x="423" y="250" as="sourcePoint" />
            <mxPoint x="423" y="200" as="targetPoint" />
          </mxGeometry>
        </mxCell>
        <mxCell id="tR6j3zLINmBn2Jut2dCj-10" value="&lt;b&gt;&lt;font style=&quot;font-size: 18px&quot;&gt;CE&lt;/font&gt;&lt;/b&gt;" style="text;html=1;strokeColor=none;fillColor=none;align=center;verticalAlign=middle;whiteSpace=wrap;rounded=0;" vertex="1" parent="1">
          <mxGeometry x="270" y="202.5" width="60" height="25" as="geometry" />
        </mxCell>
        <mxCell id="tR6j3zLINmBn2Jut2dCj-11" value="&lt;b&gt;&lt;font style=&quot;font-size: 18px&quot;&gt;DEL&lt;/font&gt;&lt;/b&gt;" style="text;html=1;strokeColor=none;fillColor=none;align=center;verticalAlign=middle;whiteSpace=wrap;rounded=0;" vertex="1" parent="1">
          <mxGeometry x="340" y="202.5" width="60" height="25" as="geometry" />
        </mxCell>
        <mxCell id="tR6j3zLINmBn2Jut2dCj-12" value="" style="rounded=1;whiteSpace=wrap;html=1;" vertex="1" parent="1">
          <mxGeometry x="499" y="197.5" width="70" height="35" as="geometry" />
        </mxCell>
        <mxCell id="tR6j3zLINmBn2Jut2dCj-14" value="&lt;b&gt;&lt;font style=&quot;font-size: 18px&quot;&gt;ON&lt;/font&gt;&lt;/b&gt;" style="text;html=1;strokeColor=none;fillColor=none;align=center;verticalAlign=middle;whiteSpace=wrap;rounded=0;" vertex="1" parent="1">
          <mxGeometry x="504" y="202.5" width="60" height="25" as="geometry" />
        </mxCell>
        <mxCell id="tR6j3zLINmBn2Jut2dCj-16" value="&lt;span style=&quot;font-size: 18px&quot;&gt;&lt;b&gt;?&lt;/b&gt;&lt;/span&gt;" style="text;html=1;strokeColor=none;fillColor=none;align=center;verticalAlign=middle;whiteSpace=wrap;rounded=0;" vertex="1" parent="1">
          <mxGeometry x="569" y="45" width="30" height="25" as="geometry" />
        </mxCell>
      </root>
    </mxGraphModel>
  </diagram>
</mxfile>
